# AST/ASF file generated using VICON BodyLanguage
# -----------------------------------------------
:version 1.10
:name VICON
:units
  mass 1.0
  length 0.45
  angle deg
:documentation
   .ast/.asf automatically generated from VICON data using
   VICON BodyBuilder and BodyLanguage model FoxedUp or BRILLIANT.MOD
:root
   order TX TY TZ RX RY RZ
   axis XYZ
   position 0 0 0  
   orientation 0 0 0 
:bonedata
  begin
     id 1 
     name lhipjoint
     direction 0.602128 -0.715006 0.355257 
     length 2.21237 
     axis 0 0 0  XYZ
  end
  begin
     id 2 
     name lfemur
     direction 0.34202 -0.939693 0  
     length 6.71649  
     axis 0 0 20  XYZ
    dof rx ry rz
    limits (-160.0 20.0)
           (-70.0 70.0)
           (-60.0 70.0)
  end
  begin
     id 3 
     name ltibia
     direction 0.34202 -0.939693 0   
     length 6.97123   
     axis 0 0 20   XYZ
    dof rx
    limits (-10.0 170.0)
  end
  begin
     id 4 
     name lfoot
     direction 0.0655697 -0.180151 0.981451   
     length 1.80924   
     axis -90 7.62852e-016 20   XYZ
    dof rx rz
    limits (-45.0 90.0)
           (-70.0 20.0)
  end
  begin
     id 5 
     name ltoes
     direction 1.53545e-011 -4.21827e-011 1   
     length 0.916331   
     axis -90 7.62852e-016 20   XYZ
    dof rx
    limits (-90.0 20.0)
  end
  begin
     id 6 
     name rhipjoint
     direction -0.625414 -0.698792 0.347201   
     length 2.2637  
     axis 0 0 0  XYZ 
  end
  begin
     id 7 
     name rfemur
     direction -0.34202 -0.939693 0   
     length 7.07595   
     axis 0 0 -20   XYZ
    dof rx ry rz
    limits (-160.0 20.0)
           (-70.0 70.0)
           (-70.0 60.0)
  end
  begin
     id 8 
     name rtibia
     direction -0.34202 -0.939693 0   
     length 7.22924   
     axis 0 0 -20   XYZ
    dof rx
    limits (-10.0 170.0)
 end
 begin
     id 9 
     name rfoot
     direction -0.0766747 -0.210662 0.974547   
     length 1.98482  
     axis -90 -7.62852e-016 -20   XYZ
    dof rx rz
    limits (-45.0 90.0)
           (-20.0 70.0)
  end
  begin
     id 10 
     name rtoes
     direction -1.53532e-011 -4.21867e-011 1   
     length 0.999842   
     axis -90 -7.62852e-016 -20   XYZ
    dof rx
    limits (-90.0 20.0)
  end
  begin
     id 11 
     name lowerback
     direction -0.0224668 0.997354 -0.0691422   
     length 2.09945   
     axis 0 0 0   XYZ
    dof rx ry rz
    limits (-20.0 45.0)
           (-30.0 30.0)
           (-30.0 30.0)
  end
  begin
     id 12 
     name upperback
     direction 0.0134698 0.998451 -0.0539888   
     length 2.09758   
     axis 0 0 0   XYZ
    dof rx ry rz
    limits (-20.0 45.0)
           (-30.0 30.0)
           (-30.0 30.0)
  end
  begin
     id 13 
     name thorax
     direction 0.0241905 0.99948 -0.0213333   
     length 2.10428   
     axis 0 0 0   XYZ
    dof rx ry rz
    limits (-20.0 45.0)
           (-30.0 30.0)
           (-30.0 30.0)
  end
  begin
     id 14 
     name lowerneck
     direction -0.00866847 0.995978 0.0891737   
     length 1.3959   
     axis 0 0 0   XYZ
    dof rx ry rz
    limits (-20.0 45.0)
           (-30.0 30.0)
           (-30.0 30.0)
  end
  begin
     id 15 
     name upperneck
     direction 0.0680679 0.992203 0.104404   
     length 1.39452   
     axis 0 0 0   XYZ
    dof rx ry rz
    limits (-20.0 45.0)
           (-30.0 30.0)
           (-30.0 30.0)
  end
  begin
     id 16
     name head
     direction 0.0242216 0.999358 0.0264054  
     length 1.40433  
     axis 0 0 0   XYZ
    dof rx ry rz
    limits (-20.0 45.0)
           (-30.0 30.0)
           (-30.0 30.0)
  end
  begin
     id 17 
     name lclavicle
     direction 0.929368 0.362991 -0.0671771  
     length 3.04887  
     axis 0 0 0   XYZ
    dof ry rz
    limits (-20.0 10.0)
           (0.0 20.0)
  end
  begin
     id 18 
     name lhumerus
     direction 1 -4.48967e-011 -7.13741e-028   
     length 4.77195   
     axis -180 -30 -90   XYZ
    dof rx ry rz
    limits (-60.0 90.0)
           (-90.0 90.0)
           (-90.0 90.0)
  end
  begin
     id 19
     name lradius
     direction 1 -4.48977e-011 3.60404e-027   
     length 2.98444   
     axis -180 -30 -90   XYZ
    dof rx
    limits (-10.0 170.0)
  end
  begin
     id 20
     name lwrist
     direction 1 -4.48997e-011 7.54877e-027   
     length 1.49222   
     axis -7.18178e-015 90 90   XYZ
    dof ry
    limits (-180.0 0.0)
 end
  begin
     id 21 
     name lhand
     direction 1 -4.489e-011 1.51105e-026   
     length 0.992285   
     axis -9.63605e-015 90 90   XYZ
    dof rx rz
    limits (-90.0 90.0)
           (-45.0 45.0)
  end
  begin
     id 22 
     name lfingers
     direction 1 -4.48998e-011 3.01948e-026   
     length 0.800006   
     axis -1.92718e-014 90 90   XYZ
    dof rx
    limits (0.0 90.0)
  end
  begin
     id 23
     name lthumb
     direction 0.707107 -6.34881e-011 0.707107   
     length 1.14865   
     axis -90 45 -3.53137e-014   XYZ
    dof rx rz
    limits (-45.0 45.0)
           (-45.0 45.0)
  end
  begin
     id 24 
     name rclavicle
     direction -0.945672 0.324529 0.0196374   
     length 3.4236  
     axis 0 0 0   XYZ 
    dof ry rz
    limits (-10.0 20.0)
           (-20.0 0.0)
  end
  begin
     id 25 
     name rhumerus
     direction -1 -4.4896e-011 1.02757e-029  
     length 4.62052   
     axis -180 30 90   XYZ
    dof rx ry rz
    limits (-90.0 60.0)
           (-90.0 90.0)
           (-90.0 90.0)
  end
  begin
     id 26 
     name rradius
     direction -1 -4.48982e-011 3.85962e-027   
     length 2.95332   
     axis -180 30 90   XYZ
    dof rx
    limits (-10.0 170.0)
  end
  begin
     id 27 
     name rwrist
     direction -1 -4.48961e-011 7.55118e-027   
     length 1.47666   
     axis -7.18178e-015 -90 -90   XYZ
    dof ry
    limits (-180.0 0.0)
  end
  begin
     id 28
     name rhand
     direction -1 -4.48984e-011 1.50994e-026   
     length 0.990956   
     axis -9.63605e-015 -90 -90   XYZ
    dof rx rz
    limits (-90.0 90.0)
           (-45.0 45.0)
  end
  begin
     id 29
     name rfingers
     direction -1 -4.4892e-011 3.02158e-026   
     length 0.798934   
     axis -1.92718e-014 -90 -90   XYZ
    dof rx
    limits (0.0 90.0)
  end
  begin
     id 30
     name rthumb
     direction -0.707107 -6.34916e-011 0.707107   
     length 1.14711   
     axis -90 -45 3.53137e-014   XYZ
    dof rx rz
    limits (-45.0 45.0)
           (-45.0 45.0)
  end
:hierarchy
  begin
    root lhipjoint rhipjoint lowerback
    lhipjoint lfemur
    lfemur ltibia
    ltibia lfoot
    lfoot ltoes
    rhipjoint rfemur
    rfemur rtibia
    rtibia rfoot
    rfoot rtoes
    lowerback upperback
    upperback thorax
    thorax lowerneck lclavicle rclavicle
    lowerneck upperneck
    upperneck head
    lclavicle lhumerus
    lhumerus lradius
    lradius lwrist
    lwrist lhand lthumb
    lhand lfingers
    rclavicle rhumerus
    rhumerus rradius
    rradius rwrist
    rwrist rhand rthumb
    rhand rfingers
  end

#!OML:ASF H:\ManfredObstacles\Project 1\Capture day 1\Session 1\Male.ASF
:FULLY-SPECIFIED
:DEGREES
1
root -11.0564 16.1324 40.3745 -169.946 -11.8872 -178.569
lowerback -11.0332 -0.4225 -2.10619
upperback 0.98668 -0.563023 2.93721
thorax 7.30383 -0.453322 4.20687
lowerneck -2.50508 12.3987 -9.00104
upperneck -6.62835 16.7416 5.39464
head -3.08379 8.3809 2.81893
rclavicle -5.26779e-015 3.33958e-014
rhumerus -41.5088 -30.8848 -64.0487
rradius 22.159
rwrist 39.2819
rhand 0.425252 -6.94266
rfingers 7.12502
rthumb 25.9976 -35.1843
lclavicle -5.26779e-015 3.33958e-014
lhumerus -23.821 8.59794 91.7473
lradius 19.0707
lwrist -29.1254
lhand -6.20341 11.1789
lfingers 7.12502
lthumb 19.6368 40.2071
rfemur -31.8272 -7.00895 18.7473
rtibia 29.2206
rfoot -14.349 8.85237
rtoes 15.1479
lfemur 3.86984 -12.5773 -19.4999
ltibia -3.49861e-014
lfoot -6.14326 -3.81191
ltoes 31.716
2
root -11.0569 16.136 40.3776 -170.005 -11.9347 -178.534
lowerback -11.0163 0.00691919 -1.66577
upperback 1.0074 0.0127262 2.34358
thorax 7.2611 -0.132102 3.42185
lowerneck -2.41453 12.161 -8.06451
upperneck -6.6504 16.4253 5.68408
head -3.01694 8.18923 2.77651
rclavicle 9.14409e-015 -5.96354e-015
rhumerus -42.4409 -32.1991 -64.0211
rradius 22.4689
rwrist 39.3119
rhand 0.274985 -6.62202
rfingers 7.12502
rthumb 25.8537 -34.8847
lclavicle 9.14409e-015 -5.96354e-015
lhumerus -23.9188 7.65255 90.917
lradius 18.3516
lwrist -29.8298
lhand -5.98423 10.8399
lfingers 7.12502
lthumb 19.8475 39.8465
rfemur -31.6934 -6.62764 18.6512
rtibia 29.1502
rfoot -13.3995 8.3743
rtoes 14.9153
lfemur 3.71956 -12.6312 -19.3339
ltibia 3.33958e-014
lfoot -5.95497 -4.10421
ltoes 34.3
3
root -11.0623 16.1388 40.382 -170.03 -12.0257 -178.553
lowerback -10.9966 0.395522 -1.34483
upperback 1.00159 0.536797 1.84227
thorax 7.21144 0.153931 2.79608
lowerneck -2.22338 11.9224 -6.98959
upperneck -6.74489 16.083 5.62753
head -2.94324 7.98522 2.59032
rclavicle 1.55052e-014 2.0276e-014
rhumerus -43.2034 -33.2935 -63.9522
rradius 22.6946
rwrist 39.1871
rhand 0.0822246 -6.36368
rfingers 7.12502
rthumb 25.6691 -34.6531
lclavicle 1.55052e-014 2.0276e-014
lhumerus -23.9355 7.0687 90.1893
lradius 17.5199
lwrist -30.7453
lhand -6.01182 10.7711
lfingers 7.12502
lthumb 19.821 39.7804
rfemur -31.5872 -6.40595 18.5219
rtibia 29.085
rfoot -12.4518 8.049
rtoes 14.3564
lfemur 3.68464 -12.7254 -19.3577
ltibia -7.63333e-014
lfoot -5.93158 -4.08382
ltoes 34.1956
4
root -11.0688 16.1392 40.3876 -170.033 -12.1085 -178.579
lowerback -10.926 0.789071 -1.05999
upperback 0.951074 1.06442 1.38361
thorax 7.09921 0.43799 2.23589
lowerneck -2.0631 11.6952 -6.01927
upperneck -6.77657 15.7616 5.59771
head -2.862 7.79482 2.43158
rclavicle -1.43373e-014 -3.18055e-015
rhumerus -43.9194 -34.2676 -63.8986
rradius 22.9778
rwrist 38.9415
rhand 0.0309394 -6.42639
rfingers 7.12502
rthumb 25.62 -34.7229
lclavicle -1.43373e-014 -3.18055e-015
lhumerus -23.917 6.78916 89.4443
lradius 16.6365
lwrist -31.9156
lhand -5.89203 10.8561
lfingers 7.12502
lthumb 19.9361 39.8535
rfemur -31.5176 -6.3071 18.4234
rtibia 28.9976
rfoot -11.4705 7.85495
rtoes 13.5164
lfemur 3.72155 -12.8055 -19.4716
ltibia 4.77083e-014
lfoot -6.05972 -3.88951
ltoes 32.1293
5
root -11.0736 16.1383 40.3926 -170.288 -12.2223 -178.483
lowerback -10.5851 1.16479 -0.604562
upperback 0.941247 1.54348 0.936656
thorax 6.8966 0.704319 1.57768
lowerneck -2.05263 11.4832 -5.24558
upperneck -6.65516 15.4767 5.81649
head -2.75234 7.62588 2.39542
rclavicle -1.68967e-014 -6.65929e-015
rhumerus -44.6042 -35.0688 -64.0382
rradius 23.3981
rwrist 38.5952
rhand 0.0379712 -6.68435
rfingers 7.12502
rthumb 25.6267 -34.9799
lclavicle -1.68967e-014 -6.65929e-015
lhumerus -23.8983 7.01221 88.4714
lradius 15.7196
lwrist -33.5125
lhand -5.66619 10.8547
lfingers 7.12502
lthumb 20.1532 39.8293
rfemur -31.199 -6.24031 18.4438
rtibia 28.9128
rfoot -10.493 7.658
rtoes 11.3336
lfemur 3.93536 -12.9032 -19.4392
ltibia -7.95139e-015
lfoot -6.05732 -3.86418
ltoes 31.8945
6
root -11.0778 16.1363 40.396 -170.751 -12.3563 -178.306
lowerback -10.0063 1.88528 0.252712
upperback 0.949046 2.46717 0.0419701
thorax 6.62447 1.21205 0.285091
lowerneck -2.1213 10.9833 -3.32642
upperneck -6.49339 14.7719 5.91807
head -2.47969 7.21643 2.16071
rclavicle -1.78285e-014 -1.15295e-014
rhumerus -46.1263 -36.9898 -63.9928
rradius 23.943
rwrist 38.3429
rhand -0.122538 -6.77149
rfingers 7.12502
rthumb 25.473 -35.0891
lclavicle -1.78285e-014 -1.15295e-014
lhumerus -23.7573 5.73484 87.2461
lradius 14.8336
lwrist -34.8051
lhand -5.55906 10.8609
lfingers 7.12502
lthumb 20.2562 39.8247
rfemur -30.6572 -6.06585 18.4893
rtibia 28.8443
rfoot -8.58956 7.36756
rtoes 8.15173
lfemur 4.24618 -13.0185 -19.288
ltibia 3.97569e-014
lfoot -5.86156 -4.0037
ltoes 33.7311
7
root -11.0822 16.135 40.4 -170.952 -12.4206 -178.269
lowerback -9.84676 1.94039 0.378915
upperback 1.00916 2.53301 -0.0307963
thorax 6.60651 1.2515 0.143952
lowerneck -2.25321 11.0166 -3.21147
upperneck -6.23712 14.8123 5.99355
head -2.37003 7.24082 2.17974
rclavicle 2.1419e-014 5.96354e-016
rhumerus -46.0415 -36.9908 -64.1481
rradius 24.0748
rwrist 38.1852
rhand -0.263447 -6.65935
rfingers 7.12502
rthumb 25.338 -34.9961
lclavicle 2.1419e-014 5.96354e-016
lhumerus -23.7231 8.07079 86.1512
lradius 13.8716
lwrist -37.5132
lhand -5.70895 10.7656
lfingers 7.12502
lthumb 20.1121 39.7446
rfemur -30.4027 -5.94892 18.4382
rtibia 28.78
rfoot -8.59538 7.17114
rtoes 8.18318
lfemur 4.38916 -13.0815 -19.2657
ltibia -7.95139e-014
lfoot -5.77888 -4.08735
ltoes 34.6555
8
root -11.088 16.1344 40.4056 -170.885 -12.4305 -178.336
lowerback -9.89752 1.97384 0.316653
upperback 0.971222 2.58513 -0.0483221
thorax 6.59338 1.2747 0.169523
lowerneck -2.24899 11.0663 -3.23626
upperneck -5.98829 14.8799 6.0541
head -2.29919 7.28258 2.20682
rclavicle 1.1865e-014 2.48481e-015
rhumerus -45.8796 -36.7466 -64.342
rradius 24.3341
rwrist 37.6166
rhand -0.121989 -6.74826
rfingers 7.12502
rthumb 25.4735 -35.0657
lclavicle 1.1865e-014 2.48481e-015
lhumerus -23.7806 11.1422 84.9358
lradius 12.8867
lwrist -40.8414
lhand -5.83306 10.7062
lfingers 7.12502
lthumb 19.9928 39.6977
rfemur -30.4504 -6.01199 18.3721
rtibia 28.7141
rfoot -8.53612 7.12209
rtoes 7.47631
lfemur 4.34659 -13.097 -19.3763
ltibia 8.11041e-014
lfoot -5.84854 -4.041
ltoes 33.8763
9
root -11.0946 16.1348 40.4132 -170.821 -12.3997 -178.305
lowerback -9.98206 1.9754 0.259085
upperback 0.935155 2.58552 0.0542468
thorax 6.59571 1.27009 0.311541
lowerneck -2.06559 11.1423 -3.35636
upperneck -5.87223 14.9865 6.03705
head -2.3071 7.34259 2.20839
rclavicle -2.00773e-014 -1.68967e-015
rhumerus -45.5004 -36.193 -64.7437
rradius 24.7041
rwrist 36.5333
rhand 0.0631088 -7.17069
rfingers 7.12502
rthumb 25.6508 -35.4628
lclavicle -2.00773e-014 -1.68967e-015
lhumerus -23.9611 15.0847 83.5144
lradius 11.9545
lwrist -44.8381
lhand -5.91987 10.6286
lfingers 7.12502
lthumb 19.9094 39.6287
rfemur -30.5259 -5.9751 18.3968
rtibia 28.6519
rfoot -8.54314 7.01686
rtoes 6.61456
lfemur 4.28791 -13.057 -19.3918
ltibia 5.40694e-014
lfoot -5.88786 -3.97882
ltoes 32.8866
10
root -11.0993 16.1355 40.4221 -170.827 -12.3152 -178.16
lowerback -10.0535 2.00904 0.324176
upperback 0.946676 2.61534 0.145962
thorax 6.6471 1.28469 0.378762
lowerneck -1.9677 11.1639 -3.40664
upperneck -5.75496 15.0159 5.99683
head -2.2872 7.3633 2.19957
rclavicle -6.52635e-014 5.66536e-015
rhumerus -45.1268 -35.8837 -65.0902
rradius 24.9356
rwrist 35.8561
rhand 0.00261893 -7.47263
rfingers 7.12502
rthumb 25.5929 -35.773
lclavicle -6.52635e-014 5.66536e-015
lhumerus -24.2097 18.4922 82.1516
lradius 11.2985
lwrist -48.1223
lhand -5.96787 10.6392
lfingers 7.12502
lthumb 19.8632 39.6442
rfemur -30.5592 -5.7606 18.5022
rtibia 28.5897
rfoot -8.50771 6.83074
rtoes 6.28731
lfemur 4.17197 -12.9566 -19.2062
ltibia -1.59028e-015
lfoot -5.7183 -4.02109
ltoes 34.1527
